<?xml version="1.0" standalone="no"?>
<!DOCTYPE svg PUBLIC "-//W3C//DTD SVG 20010904//EN"
 "http://www.w3.org/TR/2001/REC-SVG-20010904/DTD/svg10.dtd">
<svg version="1.0" xmlns="http://www.w3.org/2000/svg"
 width="64.000000pt" height="64.000000pt" viewBox="0 0 64.000000 64.000000"
 preserveAspectRatio="xMidYMid meet">

<g transform="translate(0.000000,64.000000) scale(0.100000,-0.100000)"
fill="#000000" stroke="none">
<path d="M229 402 c-26 -23 -33 -38 -36 -79 -5 -47 -3 -53 30 -89 32 -36 40
-39 87 -39 47 0 55 3 87 39 33 36 35 42 30 89 -6 71 -46 107 -117 107 -40 0
-56 -5 -81 -28z m75 -8 c24 -9 19 -32 -14 -66 -25 -25 -33 -28 -45 -18 -23 19
-18 46 11 69 30 24 27 23 48 15z"/>
<path d="M12 246 c3 -162 12 -184 79 -218 51 -26 407 -26 458 0 67 34 76 56
79 218 l4 144 -54 0 -54 0 4 -57 c5 -76 -33 -154 -96 -198 -64 -44 -180 -44
-244 0 -63 44 -101 122 -96 198 l4 57 -44 0 -44 0 4 -144z"/>
</g>
</svg>
