<svg width="26" height="26" viewBox="0 0 26 26" fill="none" xmlns="http://www.w3.org/2000/svg">
<path d="M24.9875 7.76113V7.7625V18.2375C24.9875 20.4131 24.3409 22.0894 23.2089 23.2214C22.0769 24.3534 20.4006 25 18.225 25H7.7625C5.58695 25 3.91071 24.3535 2.77877 23.2201C1.64677 22.0867 1 20.4072 1 18.225V7.7625C1 5.58694 1.64655 3.91055 2.77855 2.77855C3.91055 1.64655 5.58694 1 7.7625 1H18.2375C20.4132 1 22.0893 1.6466 23.2197 2.77833C24.3499 3.90996 24.9935 5.58588 24.9875 7.76113ZM12.5161 17.0339L12.5161 17.0339L12.5085 17.0265C12.3113 16.8376 12.2 16.57 12.2 16.2875C12.2 16.0112 12.3072 15.7499 12.5161 15.5411L14.2786 13.7786C14.8363 13.2208 14.8363 12.3042 14.2786 11.7464C13.7208 11.1887 12.8042 11.1887 12.2464 11.7464L10.4856 13.5073C9.73944 14.2401 9.325 15.2436 9.325 16.2875C9.325 17.3351 9.74194 18.324 10.4839 19.0661C11.2447 19.8268 12.2614 20.2125 13.2625 20.2125C14.2621 20.2125 15.2668 19.8403 16.0411 19.0661L18.8161 16.2911C21.3238 13.7833 21.324 9.69133 18.8031 7.18347C16.2953 4.67618 12.2041 4.67634 9.69645 7.18395L6.67145 10.2089C5.58899 11.2914 5 12.7316 5 14.2625C5 15.7942 5.60224 17.2363 6.70009 18.2947C7.25819 18.8488 8.172 18.8476 8.72855 18.2911C9.28632 17.7333 9.28632 16.8167 8.72855 16.2589L8.72857 16.2589L8.72504 16.2555C8.18507 15.7261 7.8875 15.0055 7.8875 14.25C7.8875 13.4974 8.18318 12.7864 8.72855 12.2411L11.7536 9.21605C13.1458 7.82381 15.4042 7.82381 16.7964 9.21605C18.1887 10.6083 18.1887 12.8667 16.7964 14.2589L14.0214 17.0339C13.6042 17.4512 12.9333 17.4512 12.5161 17.0339Z" stroke="url(#paint0_linear_21301_249)"/>
<defs>
<linearGradient id="paint0_linear_21301_249" x1="12.9938" y1="0.5" x2="12.9938" y2="25.5" gradientUnits="userSpaceOnUse">
<stop stop-color="#DE48B5"/>
<stop offset="1" stop-color="#3369F3"/>
</linearGradient>
</defs>
</svg>
