<svg width="45" height="45" viewBox="0 0 45 45" fill="none" xmlns="http://www.w3.org/2000/svg">
<path opacity="0.4" d="M40.75 22.5C40.75 32.5792 32.5792 40.75 22.5 40.75C12.4208 40.75 4.25 32.5792 4.25 22.5C4.25 12.4208 12.4208 4.25 22.5 4.25C32.5792 4.25 40.75 12.4208 40.75 22.5Z" fill="white" stroke="url(#paint0_linear_21349_91)"/>
<path d="M32.3438 19.0875V24.0187C32.3438 24.3375 32.325 24.6375 32.2875 24.9375C32.0063 28.2562 30.0375 29.9063 26.4375 29.9063H25.95C25.65 29.9063 25.35 30.0563 25.1625 30.3L23.6813 32.2687C23.025 33.15 21.975 33.15 21.3187 32.2687L19.8375 30.3C19.6687 30.0938 19.3125 29.9063 19.05 29.9063H18.5625C14.625 29.9063 12.6562 28.9312 12.6562 24V19.0688C12.6562 15.4688 14.325 13.5 17.625 13.2187C17.925 13.1812 18.225 13.1625 18.5438 13.1625H26.4187C30.375 13.2 32.3438 15.1687 32.3438 19.0875Z" fill="url(#paint1_linear_21349_91)"/>
<defs>
<linearGradient id="paint0_linear_21349_91" x1="22.5" y1="3.75" x2="22.5" y2="41.25" gradientUnits="userSpaceOnUse">
<stop stop-color="#DE48B5"/>
<stop offset="1" stop-color="#0097FF"/>
</linearGradient>
<linearGradient id="paint1_linear_21349_91" x1="22.5" y1="13.1625" x2="22.5" y2="32.9297" gradientUnits="userSpaceOnUse">
<stop stop-color="#DE48B5"/>
<stop offset="1" stop-color="#0097FF"/>
</linearGradient>
</defs>
</svg>
