<svg width="24" height="24" viewBox="0 0 24 24" fill="none" xmlns="http://www.w3.org/2000/svg">
<path d="M19.5876 7.6375L8.88759 2.2875C1.70009 -1.3125 -1.24991 1.6375 2.35009 8.825L3.43759 11C3.75009 11.6375 3.75009 12.375 3.43759 13.0125L2.35009 15.175C-1.24991 22.3625 1.68759 25.3125 8.88759 21.7125L19.5876 16.3625C24.3876 13.9625 24.3876 10.0375 19.5876 7.6375ZM15.5501 12.9375H8.80009C8.28758 12.9375 7.86259 12.5125 7.86259 12C7.86259 11.4875 8.28758 11.0625 8.80009 11.0625H15.5501C16.0626 11.0625 16.4876 11.4875 16.4876 12C16.4876 12.5125 16.0626 12.9375 15.5501 12.9375Z" fill="url(#paint0_linear_21301_199)"/>
<defs>
<linearGradient id="paint0_linear_21301_199" x1="11.9998" y1="0.751663" x2="11.9998" y2="23.2483" gradientUnits="userSpaceOnUse">
<stop stop-color="#DE48B5"/>
<stop offset="1" stop-color="#3369F3"/>
</linearGradient>
</defs>
</svg>
