<svg width="24" height="24" viewBox="0 0 24 24" fill="none" xmlns="http://www.w3.org/2000/svg">
<path d="M15.02 3.01001C14.18 2.37001 13.14 2 12 2C9.24 2 7 4.24 7 7C7 9.76 9.24 12 12 12C14.76 12 17 9.76 17 7" stroke="url(#paint0_linear_21411_317)" stroke-width="1.5" stroke-linecap="round" stroke-linejoin="round"/>
<path d="M3.41003 22C3.41003 18.13 7.26003 15 12 15C12.96 15 13.89 15.13 14.76 15.37" stroke="url(#paint1_linear_21411_317)" stroke-width="1.5" stroke-linecap="round" stroke-linejoin="round"/>
<path d="M22 18C22 18.32 21.96 18.63 21.88 18.93C21.79 19.33 21.63 19.72 21.42 20.06C20.73 21.22 19.46 22 18 22C16.97 22 16.04 21.61 15.34 20.97C15.04 20.71 14.78 20.4 14.58 20.06C14.21 19.46 14 18.75 14 18C14 16.92 14.43 15.93 15.13 15.21C15.86 14.46 16.88 14 18 14C19.18 14 20.25 14.51 20.97 15.33C21.61 16.04 22 16.98 22 18Z" stroke="url(#paint2_linear_21411_317)" stroke-width="1.5" stroke-miterlimit="10" stroke-linecap="round" stroke-linejoin="round"/>
<path d="M19.49 17.98H16.51" stroke="url(#paint3_linear_21411_317)" stroke-width="1.5" stroke-miterlimit="10" stroke-linecap="round" stroke-linejoin="round"/>
<path d="M18 16.52V19.51" stroke="url(#paint4_linear_21411_317)" stroke-width="1.5" stroke-miterlimit="10" stroke-linecap="round" stroke-linejoin="round"/>
<defs>
<linearGradient id="paint0_linear_21411_317" x1="12" y1="2" x2="12" y2="12" gradientUnits="userSpaceOnUse">
<stop stop-color="#DE48B5"/>
<stop offset="1" stop-color="#0097FF"/>
</linearGradient>
<linearGradient id="paint1_linear_21411_317" x1="9.08504" y1="15" x2="9.08504" y2="22" gradientUnits="userSpaceOnUse">
<stop stop-color="#DE48B5"/>
<stop offset="1" stop-color="#0097FF"/>
</linearGradient>
<linearGradient id="paint2_linear_21411_317" x1="18" y1="14" x2="18" y2="22" gradientUnits="userSpaceOnUse">
<stop stop-color="#DE48B5"/>
<stop offset="1" stop-color="#0097FF"/>
</linearGradient>
<linearGradient id="paint3_linear_21411_317" x1="18" y1="17.98" x2="18" y2="18.98" gradientUnits="userSpaceOnUse">
<stop stop-color="#DE48B5"/>
<stop offset="1" stop-color="#0097FF"/>
</linearGradient>
<linearGradient id="paint4_linear_21411_317" x1="18.5" y1="16.52" x2="18.5" y2="19.51" gradientUnits="userSpaceOnUse">
<stop stop-color="#DE48B5"/>
<stop offset="1" stop-color="#0097FF"/>
</linearGradient>
</defs>
</svg>
